PathFileType	4	(X/Y/Z)	../Python\running\Running03\task.trc
DataRate	CameraRate	NumFrames	NumMarkers	Units	OrigDataRate	OrigDataStartFrame	OrigNumFrames
200.000000	200.000000	4	30	mm	200.000000	74	198
Frame#	Time	C7			RBAK			CLAV			STRN			RASI			RPSI			LASI			PE01			RTH2			RTH3			RD5M			RTOE			LTH2			LTH3			LTB2			LTB3			LHEE			LTOE			LD5M			RHEE			RTH1			RTB2			LPSI			T10			RTB1			PE03			RTB3			PE02			LTH1			LTB1			
		X1	Y1	Z1	X2	Y2	Z2	X3	Y3	Z3	X4	Y4	Z4	X5	Y5	Z5	X6	Y6	Z6	X7	Y7	Z7	X8	Y8	Z8	X9	Y9	Z9	X10	Y10	Z10	X11	Y11	Z11	X12	Y12	Z12	X13	Y13	Z13	X14	Y14	Z14	X15	Y15	Z15	X16	Y16	Z16	X17	Y17	Z17	X18	Y18	Z18	X19	Y19	Z19	X20	Y20	Z20	X21	Y21	Z21	X22	Y22	Z22	X23	Y23	Z23	X24	Y24	Z24	X25	Y25	Z25	X26	Y26	Z26	X27	Y27	Z27	X28	Y28	Z28	X29	Y29	Z29	X30	Y30	Z30	

75	0.37	-110.252182006836	1368.976928710938	138.6615753173829	-185.5506591796876	1283.908325195313	212.5329589843751	-0.7619447112083439	1277.554443359375	172.5085601806641	40.24496459960939	1094.700439453125	171.0454559326172	-24.36619567871095	889.9241333007817	247.4673004150392	-209.3781127929689	968.5448608398442	197.9790802001954	-31.73750686645509	861.5334472656255	29.67679023742677	-190.0628356933594	997.928588867188	148.9666442871094	33.76134490966798	550.0272216796877	280.7843627929689	36.7004737854004	610.4721679687502	294.1333007812501	283.4175109863282	58.76509094238284	262.8592529296876	314.0607910156251	83.3686447143555	219.7973175048829	-269.5573120117189	608.5924072265627	31.45588302612306	-191.8709411621094	604.410583496094	10.73063087463379	-514.8697509765627	369.4020385742189	64.26914978027347	-466.7797851562502	357.6791381835939	60.19862365722659	-651.4133911132815	293.9331359863282	131.2071075439454	-604.0742797851565	126.1057052612305	116.6626739501954	-627.9021606445315	150.2865905761719	69.4824142456055	135.8387145996094	88.69416046142581	196.737762451172	-13.72281169891358	611.5574951171877	297.4569396972657	108.1584701538087	300.3358459472657	283.752655029297	-208.3585968017579	965.5745239257817	110.3700027465821	-178.0110778808594	1086.934204101563	123.1412963867188	134.3167572021485	355.2643127441407	278.4197998046876	-226.3943176269532	943.255981445313	131.7056274414063	152.3310241699219	278.3583984375001	274.3475036621095	-223.7285766601564	950.4189453125005	181.7622985839844	-223.5124969482423	644.3747558593752	10.95539474487305	-453.1820068359377	416.8628845214846	49.31768035888675	
76	0.375	-93.42794036865237	1367.8173828125	139.6836242675782	-169.0773468017579	1281.986694335938	213.2890625000001	15.98520374298096	1276.706665039063	173.4691619873047	57.18538665771487	1094.345336914063	171.4935455322266	-7.547225952148441	889.497924804688	248.116424560547	-192.8775787353517	967.7393188476567	197.9891815185548	-13.9148817062378	861.1942749023442	30.32717132568361	-173.3473663330079	997.280639648438	149.1164703369141	51.16064071655276	548.6998291015627	281.3294372558595	53.79152297973636	609.0203247070315	295.4696655273439	299.0069580078126	56.86173629760745	261.7825622558595	329.8532714843751	81.43067932128909	219.4624023437501	-249.5267944335939	605.4726562500002	31.55124282836915	-171.4809722900391	601.7595825195315	11.99460506439209	-497.6582336425784	373.7504882812501	66.2410583496094	-450.0217590332034	360.1941528320314	61.95736312866214	-637.6099243164065	302.5281982421876	133.7308349609376	-592.4563598632815	133.9871063232422	119.5497512817383	-615.7710571289065	158.4253540039063	72.15016937255862	152.3265991210938	88.78102874755862	195.3137664794923	3.38943934440613	609.8255615234377	298.7728881835939	124.160987854004	299.3369445800782	283.232635498047	-191.0426025390626	964.799926757813	110.216163635254	-161.2115020751954	1086.0146484375	123.4407196044922	150.479232788086	354.3017883300782	278.7275390625001	-209.1739349365236	942.4633178710942	131.2955474853516	168.5064239501954	277.4226379394532	274.1776123046876	-206.9983825683595	949.4360351562505	181.4038391113282	-203.5122833251954	641.6116943359377	11.48539447784424	-434.2415771484377	418.8463439941409	50.76749420166018	
77	0.38	-76.64447784423831	1366.422485351563	140.7109680175782	-152.6165008544922	1279.818603515625	214.1223144531251	32.72216796875001	1275.59326171875	174.3765869140626	74.08296203613284	1093.622314453125	171.8876647949219	9.223134994506839	888.7981567382817	248.8835601806642	-176.4188995361329	966.4264526367192	198.0298309326173	3.937965869903566	860.684692382813	31.02882766723634	-156.6775360107422	996.1638183593755	149.3802185058594	69.11074829101565	547.5327758789065	281.7360839843751	71.31142425537112	607.7586669921877	296.5198669433595	312.7393798828126	54.07014465332034	260.7767639160157	343.9023437500001	78.36187744140628	219.123016357422	-229.2526092529298	601.988464355469	31.57566642761232	-150.8549041748047	598.7774047851565	13.23620700836182	-479.8192138671877	377.9385681152345	68.11733245849612	-432.7083740234377	362.5697631835939	63.59326171875003	-622.9725341796877	310.9908752441407	136.1468505859376	-580.037780761719	141.7496185302735	122.3649520874024	-602.8403320312502	166.4230194091797	74.74526214599612	167.0879669189454	88.34941101074222	193.8171539306642	20.91962242126466	608.1595458984377	299.9691467285157	139.4831695556641	298.0479431152345	282.664520263672	-173.8172760009766	963.6149291992192	110.1530914306641	-144.4281921386719	1084.817260742188	123.7630310058594	166.2101745605469	352.8807678222657	278.9564514160157	-192.0362091064454	941.2485351562505	130.9341125488282	183.8513946533204	275.9758911132814	273.8781127929689	-190.3351745605469	947.9628295898442	181.0974578857422	-183.2468872070313	638.473815917969	11.95786762237549	-414.783874511719	420.6372070312502	52.19518661499026	
78	0.385	-59.90381622314456	1364.79833984375	141.7502899169922	-136.1672973632813	1277.406616210938	215.0321350097657	49.4482116699219	1274.216064453125	175.2364349365235	90.94581604003909	1092.528564453125	172.2322387695313	25.95125579833986	887.820190429688	249.7656402587892	-159.9851684570313	964.5988159179692	198.0857086181642	21.81696701049805	859.9775390625005	31.78357315063478	-140.0367279052735	994.5645141601567	149.7392272949219	87.5119552612305	546.5161132812502	282.0745544433595	89.21204376220706	606.6854248046877	297.3126525878907	324.7309875488282	50.50301361083987	259.8335266113282	356.3229980468751	74.30294036865237	218.7081909179689	-208.7613830566407	598.171813964844	31.53794860839845	-130.0300750732422	595.5166015625002	14.40938091278077	-461.3507080078127	381.903045654297	69.88335418701175	-414.8297119140627	364.7667236328126	65.12278747558597	-607.4802856445315	319.2416076660157	138.5071716308594	-566.7634277343752	149.3397979736329	125.0158386230469	-589.0837402343752	174.2614440917969	77.21141052246097	180.1652526855469	87.35603332519534	192.2744445800782	38.81310653686525	606.5974121093752	301.0440063476564	154.1330718994141	296.4504394531251	282.0686340332032	-156.6806945800782	962.0114746093755	110.1731491088868	-127.653663635254	1083.3427734375	124.0938949584962	181.5021972656251	350.981658935547	279.1186523437501	-174.9712371826172	939.597778320313	130.6211853027344	198.3727569580079	274.0079040527345	273.4606323242189	-173.7190856933594	945.9960937500005	180.8410797119141	-162.7598571777344	635.0008544921877	12.3664255142212	-394.813659667969	422.1965942382815	53.5807800292969	
